<svg xmlns="http://www.w3.org/2000/svg" viewBox="0 0 160 160" role="img" aria-labelledby="realPrizeTitle realPrizeDesc">
  <title id="realPrizeTitle">RealPrize logo</title>
  <desc id="realPrizeDesc">Gift box monogram in white on a royal blue background</desc>
  <defs>
    <linearGradient id="rpBg" x1="0" y1="0" x2="1" y2="1">
      <stop offset="0%" stop-color="#1a2dbe" />
      <stop offset="100%" stop-color="#162185" />
    </linearGradient>
  </defs>
  <rect width="160" height="160" rx="28" fill="url(#rpBg)" />
  <g fill="#ffffff">
    <rect x="40" y="52" width="80" height="66" rx="10" />
    <path d="M38 82h84v18H38z" />
    <path d="M80 44c-9.5 0-17.2-5.2-21.3-13.3-0.9-1.7 0.2-3.7 2.1-3.7 0.9 0 1.8 0.5 2.3 1.3C66.3 34.9 72.5 38 80 38s13.7-3.1 16.9-9.7c0.5-0.8 1.4-1.3 2.3-1.3 1.9 0 3 2 2.1 3.7C97.2 38.8 89.5 44 80 44z" />
    <path d="M73 44h14v88H73z" />
  </g>
  <path d="M54 116h52c4.4 0 8 3.6 8 8v10H46v-10c0-4.4 3.6-8 8-8z" fill="#0b133f" opacity="0.3" />
</svg>
