<svg xmlns="http://www.w3.org/2000/svg" viewBox="0 0 160 160" role="img" aria-labelledby="nlTitle nlDesc">
  <title id="nlTitle">NoLimitCoins logo</title>
  <desc id="nlDesc">Infinity coin symbol with bold lettering</desc>
  <defs>
    <linearGradient id="nlBg" x1="0" y1="0" x2="1" y2="1">
      <stop offset="0%" stop-color="#0c1434" />
      <stop offset="100%" stop-color="#050a1c" />
    </linearGradient>
    <linearGradient id="nlInfinity" x1="0" y1="0" x2="1" y2="0">
      <stop offset="0%" stop-color="#ffb43a" />
      <stop offset="100%" stop-color="#ff8b1f" />
    </linearGradient>
  </defs>
  <rect width="160" height="160" rx="28" fill="url(#nlBg)" />
  <path d="M46 80c0-16 12.1-28 26-28 9.7 0 17.8 5.5 23.2 14 5.4-8.5 13.5-14 23.3-14 13.8 0 25.9 12 25.9 28s-12.1 28-25.9 28c-9.8 0-18-5.5-23.3-14-5.4 8.5-13.5 14-23.2 14-13.9 0-26-12-26-28z" fill="url(#nlInfinity)" />
  <path d="M68 80c0-7 4.7-12 10-12 4 0 7.6 2.5 10.5 6.6-2.9 4.1-6.5 6.6-10.5 6.6-5.3 0-10-5-10-12zm48 12c5.3 0 10-5 10-12s-4.7-12-10-12c-4 0-7.6 2.5-10.5 6.6 2.9 4.1 6.5 6.6 10.5 6.6z" fill="#1b1b1b" opacity="0.35" />
  <text x="80" y="120" fill="#ffffff" font-family="'Lexend', 'Arial Black', sans-serif" font-weight="700" font-size="24" text-anchor="middle">NOLIMITCOINS</text>
</svg>
