<svg xmlns="http://www.w3.org/2000/svg" viewBox="0 0 160 160" role="img" aria-labelledby="rollaTitle rollaDesc">
  <title id="rollaTitle">Rolla logo</title>
  <desc id="rollaDesc">Script wordmark with roulette chip</desc>
  <defs>
    <radialGradient id="rollaBg" cx="0.3" cy="0.3" r="1.1">
      <stop offset="0%" stop-color="#2a2a2a" />
      <stop offset="100%" stop-color="#050505" />
    </radialGradient>
  </defs>
  <rect width="160" height="160" rx="28" fill="url(#rollaBg)" />
  <g transform="translate(18 40)">
    <path d="M14 72c0-24 20-44 44-44 9 0 17 2.6 24 7.1C75 20 55.7 8 34 8 15.3 8 0 23.3 0 42v44c0 3.3 2.7 6 6 6h8z" fill="#b30d16" opacity="0.4" />
    <path d="M34 74c-2 0-4-1.6-4-4V28c0-2.2 1.8-4 4-4 24.9 0 46 20.1 46 45.8 0 2.4-1.8 4.2-4.2 4.2H34z" fill="#f6323e" />
    <path d="M88 34c-2.2 0-4 1.8-4 4v36c0 2.2 1.8 4 4 4h18.4c13.5 0 24.6-11.1 24.6-24.6S119.9 34 106.4 34H88z" fill="#f2f0ed" />
    <circle cx="108" cy="52" r="20" fill="#d32027" />
    <circle cx="108" cy="52" r="12" fill="#0e0d0d" />
    <circle cx="108" cy="52" r="6" fill="#ffffff" />
  </g>
  <path d="M42 118c9.2 6.2 21.4 10 34 10 16.8 0 31.9-6 42.4-15.9 1.8-1.7 0.5-4.7-1.9-4.7H52c-5.5 0-10 4.5-10 10 0 0.8 0.3 1.5 0.8 2.2z" fill="#f6323e" opacity="0.55" />
</svg>
