<svg xmlns="http://www.w3.org/2000/svg" viewBox="0 0 160 160" role="img" aria-labelledby="title lonestarDesc">
  <title id="title">LoneStar logo</title>
  <desc id="lonestarDesc">Stylized star icon inside a rounded blue square</desc>
  <defs>
    <linearGradient id="lsGradient" x1="0" y1="0" x2="1" y2="1">
      <stop offset="0%" stop-color="#1b2d59" />
      <stop offset="100%" stop-color="#102045" />
    </linearGradient>
    <linearGradient id="lsStar" x1="0" y1="0" x2="0" y2="1">
      <stop offset="0%" stop-color="#f6c440" />
      <stop offset="100%" stop-color="#ffef96" />
    </linearGradient>
  </defs>
  <rect width="160" height="160" rx="32" fill="url(#lsGradient)" />
  <path fill="url(#lsStar)" d="M80 30l13.4 28.5 31.1 3.2-23.4 21.6 6.1 30.8L80 98.8l-27.1 15.3 6.1-30.8-23.4-21.6 31.1-3.2z" />
  <path fill="#f9f7f1" d="M44 112c8.2 10.8 22.6 18 36 18 13 0 26.2-6 36.1-16.7 1.6-1.7-0.2-4.4-2.5-3.7-7.4 2.3-17.3 3.5-26.7 3.5-10.2 0-20.4-1.4-28.4-4.1-2.4-0.8-4.4 1.8-2.9 3.8z" opacity="0.35" />
</svg>
